HIERARCHY
ROOT Hips
{
	OFFSET 0.00 0.00 0.00
	CHANNELS 6 Xposition Yposition Zposition Yrotation Xrotation Zrotation
	JOINT Spine
	{
		OFFSET	0.0000	9.2263	1.5771
		CHANNELS 3 Xrotation Yrotation Zrotation
		JOINT Spine1
		{
			OFFSET	0.0000	16.2540	-0.1656
			CHANNELS 3 Xrotation Yrotation Zrotation
			JOINT Spine2
			{
				OFFSET	0.0000	13.6396	-1.2923
				CHANNELS 3 Xrotation Yrotation Zrotation
				JOINT Neck
				{
					OFFSET	0.0000	13.8774	-4.3542
					CHANNELS 3 Xrotation Yrotation Zrotation
					JOINT Neck1
					{
						OFFSET	0.0000	4.3400	0.9269
						CHANNELS 3 Xrotation Yrotation Zrotation
						JOINT Head
						{
							OFFSET	0.0000	4.0266	0.8585
							CHANNELS 3 Xrotation Yrotation Zrotation
							End Site
							{
								OFFSET 0.0000 23.0297 0.1231
							}
						}
					}
				}
				JOINT LeftShoulder
				{
					OFFSET	6.1442	10.1870	-3.7932
					CHANNELS 3 Zrotation Xrotation Yrotation
					JOINT LeftArm
					{
						OFFSET	12.3191	-1.1130	-1.7935
						CHANNELS 3 Zrotation Xrotation Yrotation
						JOINT LeftForeArm
						{
							OFFSET	27.6870	0.0000	0.0000
							CHANNELS 3 Xrotation Zrotation Yrotation
							JOINT LeftHand
							{
								OFFSET	27.8738	0.0000	0.0000
								CHANNELS 3 Zrotation Yrotation Xrotation
								JOINT LeftHandThumb1
								{
									OFFSET	2.3785	-1.0029	2.6209
									CHANNELS 3 Zrotation Xrotation Yrotation
									JOINT LeftHandThumb2
									{
										OFFSET	3.3624	-1.0029	2.8398
										CHANNELS 3 Zrotation Xrotation Yrotation
										JOINT LeftHandThumb3
										{
											OFFSET	4.5018	-1.3445	2.1783
											CHANNELS 3 Zrotation Xrotation Yrotation
											End Site
											{
												OFFSET 2.6000 -1.0000 1.0000
											}
										}
									}
								}
								JOINT LeftHandMiddle1
								{
									OFFSET	10.4639	0.6148	0.4298
									CHANNELS 3 Zrotation Xrotation Yrotation
									JOINT LeftHandMiddle2
									{
										OFFSET	5.7921	0.0000	0.0000
										CHANNELS 3 Zrotation Xrotation Yrotation
										JOINT LeftHandMiddle3
										{
											OFFSET	3.7132	0.0000	0.0000
											CHANNELS 3 Zrotation Xrotation Yrotation
											End Site
											{
												OFFSET 2.3000 0.0000 0.0000
											}
										}
									}
								}
								JOINT LeftHandIndex1
								{
									OFFSET	10.3945	0.6148	2.7055
									CHANNELS 3 Zrotation Xrotation Yrotation
									JOINT LeftHandIndex2
									{
										OFFSET	5.5493	0.0000	0.0000
										CHANNELS 3 Zrotation Xrotation Yrotation
										JOINT LeftHandIndex3
										{
											OFFSET	3.3911	0.0000	0.0000
											CHANNELS 3 Zrotation Xrotation Yrotation
											End Site
											{
												OFFSET 2.5000 0.0000 0.0000
											}
										}
									}
								}
								JOINT LeftHandRing1
								{
									OFFSET	10.3252	0.3211	-1.8755
									CHANNELS 3 Zrotation Xrotation Yrotation
									JOINT LeftHandRing2
									{
										OFFSET	5.4452	0.0000	0.0000
										CHANNELS 3 Zrotation Xrotation Yrotation
										JOINT LeftHandRing3
										{
											OFFSET	3.7132	0.0000	0.0000
											CHANNELS 3 Zrotation Xrotation Yrotation
											End Site
											{
												OFFSET 2.0000 0.0000 0.0000
											}
										}
									}
								}
								JOINT LeftHandPinky1
								{
									OFFSET	10.0130	-0.0783	-3.9671
									CHANNELS 3 Zrotation Xrotation Yrotation
									JOINT LeftHandPinky2
									{
										OFFSET	3.6763	0.0000	0.0000
										CHANNELS 3 Zrotation Xrotation Yrotation
										JOINT LeftHandPinky3
										{
											OFFSET	2.8113	0.0000	0.0000
											CHANNELS 3 Zrotation Xrotation Yrotation
											End Site
											{
												OFFSET 2.9000 0.0000 0.0000
											}
										}
									}
								}
							}
						}
					}
				}
				JOINT RightShoulder
				{
					OFFSET	-6.1402	10.1870	-3.7932
					CHANNELS 3 Zrotation Xrotation Yrotation
					JOINT RightArm
					{
						OFFSET	-12.3231	-1.1130	-1.7935
						CHANNELS 3 Zrotation Xrotation Yrotation
						JOINT RightForeArm
						{
							OFFSET	-27.6870	0.0000	0.0000
							CHANNELS 3 Xrotation Zrotation Yrotation
							JOINT RightHand
							{
								OFFSET	-27.8738	0.0000	0.0000
								CHANNELS 3 Zrotation Yrotation Xrotation
								JOINT RightHandThumb1
								{
									OFFSET	-2.5178	-0.9367	2.5137
									CHANNELS 3 Zrotation Xrotation Yrotation
									JOINT RightHandThumb2
									{
										OFFSET	-3.2638	-1.0870	2.9669
										CHANNELS 3 Zrotation Xrotation Yrotation
										JOINT RightHandThumb3
										{
											OFFSET	-4.4165	-1.3703	2.1350
											CHANNELS 3 Zrotation Xrotation Yrotation
											End Site
											{
												OFFSET -2.6000 -1.0000 1.0000
											}
										}
									}
								}
								JOINT RightHandIndex1
								{
									OFFSET	-10.4665	0.4896	2.7120
									CHANNELS 3 Zrotation Xrotation Yrotation
									JOINT RightHandIndex2
									{
										OFFSET	-5.3768	0.0000	0.0000
										CHANNELS 3 Zrotation Xrotation Yrotation
										JOINT RightHandIndex3
										{
											OFFSET	-3.3855	0.0000	0.0000
											CHANNELS 3 Zrotation Xrotation Yrotation
											End Site
											{
												OFFSET -2.6000 0.0000 0.0000
											}
										}
									}
								}
								JOINT RightHandMiddle1
								{
									OFFSET	-10.7596	0.4896	0.4278
									CHANNELS 3 Zrotation Xrotation Yrotation
									JOINT RightHandMiddle2
									{
										OFFSET	-5.6168	0.0000	0.0000
										CHANNELS 3 Zrotation Xrotation Yrotation
										JOINT RightHandMiddle3
										{
											OFFSET	-3.7364	0.0000	0.0000
											CHANNELS 3 Zrotation Xrotation Yrotation
											End Site
											{
												OFFSET -2.3000 0.0000 0.0000
											}
										}
									}
								}
								JOINT RightHandRing1
								{
									OFFSET	-10.4702	0.3879	-1.9363
									CHANNELS 3 Zrotation Xrotation Yrotation
									JOINT RightHandRing2
									{
										OFFSET	-5.4013	0.0000	0.0000
										CHANNELS 3 Zrotation Xrotation Yrotation
										JOINT RightHandRing3
										{
											OFFSET	-3.3916	0.0000	0.0000
											CHANNELS 3 Zrotation Xrotation Yrotation
											End Site
											{
												OFFSET -2.2000 0.0000 0.0000
											}
										}
									}
								}
								JOINT RightHandPinky1
								{
									OFFSET	-9.9715	-0.1191	-3.9540
									CHANNELS 3 Zrotation Xrotation Yrotation
									JOINT RightHandPinky2
									{
										OFFSET	-3.6528	0.0000	0.0000
										CHANNELS 3 Zrotation Xrotation Yrotation
										JOINT RightHandPinky3
										{
											OFFSET	-2.7820	0.0000	0.0000
											CHANNELS 3 Zrotation Xrotation Yrotation
											End Site
											{
												OFFSET -2.9000 0.0000 0.0000
											}
										}
									}
								}
							}
						}
					}
				}
			}
		}
	}
	JOINT LeftUpLeg
	{
		OFFSET	9.6338	-3.2733	0.0000
		CHANNELS 3 Xrotation Yrotation Zrotation
		JOINT LeftLeg
		{
			OFFSET	0.0000	-41.7300	-1.7300
			CHANNELS 3 Xrotation Yrotation Zrotation
			JOINT LeftFoot
			{
				OFFSET	0.0126	-39.1900	-0.8477
				CHANNELS 3 Xrotation Yrotation Zrotation
				JOINT LeftToeBase
				{
					OFFSET	-0.1833	-12.1931	8.2823
					CHANNELS 3 Xrotation Yrotation Zrotation
					End Site
					{
						OFFSET 0.0000 0.0000 10.1681
					}
				}
			}
		}
	}
	JOINT RightUpLeg
	{
		OFFSET	-9.6338	-3.2733	0.0000
		CHANNELS 3 Xrotation Yrotation Zrotation
		JOINT RightLeg
		{
			OFFSET	0.0000	-41.7300	-1.7300
			CHANNELS 3 Xrotation Yrotation Zrotation
			JOINT RightFoot
			{
				OFFSET	0.0126	-39.1900	-0.8477
				CHANNELS 3 Xrotation Yrotation Zrotation
				JOINT RightToeBase
				{
					OFFSET	-0.1833	-12.1931	8.2823
					CHANNELS 3 Xrotation Yrotation Zrotation
					End Site
					{
						OFFSET 0.0032 0.0000 10.1681
					}
				}
			}
		}
	}
}
MOTION
Frames: 6
Frame Time: 0.0333333
0.7124 81.9919 -1.8874 -74.6277 6.6168 -10.6395 1.8496 -0.6014 6.4953 3.6355 -0.6231 7.9591 3.5468 -0.4851 8.0061 9.1003 8.3146 -3.4227 -0.0000 0.0000 -0.0000 -0.6031 34.5163 -27.2107 8.0428 0.2733 -14.4896 0.7000 -17.0863 31.8941 0.0000 -0.0000 -41.8633 -9.5641 1.7961 -3.2768 -12.1358 12.7344 10.0837 -19.1479 17.8982 34.2013 -4.6650 4.9853 17.0739 -46.2641 1.3867 -0.7997 -45.6201 -0.3052 0.7256 -22.8024 -0.0793 0.3934 -46.2802 1.3869 -0.7991 -45.6040 -0.3050 0.7254 -22.8024 -0.0793 0.3934 -46.2802 1.3869 -0.7991 -45.6040 -0.3050 0.7254 -22.8024 -0.0793 0.3934 -46.1870 1.3889 3.2839 -45.6395 2.6155 -2.1321 -22.8024 -0.0793 0.3935 3.7072 2.1656 14.7541 44.9735 -0.7248 50.0419 -0.0000 0.0000 107.0871 -5.8609 -4.2260 1.0611 15.0264 9.6560 -20.2081 0.1058 6.1827 -25.2895 -5.7888 0.9845 -11.3065 43.6679 0.9025 -0.0415 53.1168 -0.9135 -1.8275 26.5614 -0.2411 -1.0215 43.6679 0.9025 -0.0415 53.1168 -0.9135 -1.8275 26.5614 -0.2411 -1.0215 43.6679 0.9025 -0.0415 53.1168 -0.9135 -1.8275 26.5614 -0.2411 -1.0215 43.6679 0.9025 -0.0415 53.1168 -0.9135 -1.8275 26.5614 -0.2411 -1.0215 -29.1378 3.0242 38.1356 58.4202 5.5752 1.3560 -21.1443 21.2678 -22.1839 -0.8275 -0.0000 0.0000 -48.0438 -3.2946 -6.3757 54.5763 8.3083 1.1958 -18.0218 22.7681 10.9555 -0.0000 0.0000 0.0000 
0.4602 82.8140 -1.2517 -73.5076 6.5352 -9.0856 1.9149 -0.5105 6.9405 3.6709 -0.4212 8.4876 3.5653 -0.2730 8.5130 9.4422 8.3147 -4.0446 -0.0000 0.0000 -0.0000 -0.4839 34.0065 -27.1643 4.9784 0.8061 -15.1166 -0.3891 -19.8480 35.5619 -0.0000 0.0000 -50.0858 -7.0214 1.3104 -3.2649 -12.1358 12.7344 10.0837 -19.1479 17.8982 34.2013 -4.6650 4.9853 17.0739 -46.2641 1.3867 -0.7997 -45.6201 -0.3052 0.7256 -22.8024 -0.0793 0.3934 -46.2802 1.3869 -0.7990 -45.6040 -0.3050 0.7254 -22.8024 -0.0793 0.3935 -46.2802 1.3869 -0.7990 -45.6040 -0.3050 0.7254 -22.8024 -0.0793 0.3935 -46.1870 1.3889 3.2839 -45.6395 2.6155 -2.1320 -22.8024 -0.0793 0.3934 3.9275 2.1699 14.5243 45.9934 -1.2793 48.1121 0.0000 -0.0000 108.7159 -5.7938 -4.2314 0.9178 15.0264 9.6560 -20.2082 0.1058 6.1828 -25.2895 -5.7888 0.9845 -11.3065 43.6679 0.9025 -0.0416 53.1168 -0.9135 -1.8275 26.5614 -0.2411 -1.0215 43.6679 0.9025 -0.0416 53.1168 -0.9135 -1.8275 26.5614 -0.2411 -1.0215 43.6679 0.9025 -0.0416 53.1168 -0.9135 -1.8275 26.5614 -0.2411 -1.0215 43.6679 0.9025 -0.0416 53.1168 -0.9135 -1.8275 26.5614 -0.2411 -1.0215 -27.6873 4.3694 36.0697 55.4265 5.2248 1.2677 -20.4911 20.9206 -22.3935 -0.6178 0.0000 0.0000 -46.5009 -2.8594 -8.3232 52.8956 8.4520 1.1811 -17.8930 22.4609 11.3756 -0.0057 0.0000 -0.0000 
0.1207 83.7755 -0.8784 -70.6850 6.4363 -7.1892 1.4646 0.3226 7.5119 3.3500 1.7002 8.3782 3.3489 1.8580 8.2932 9.5744 7.8288 -3.3212 -0.0000 0.0000 -0.0000 -0.2926 32.8091 -25.4162 -0.5241 1.4414 -12.7697 0.2295 -25.4455 34.9963 0.0000 0.0000 -72.3561 -1.9583 1.4188 -3.3999 -12.1358 12.7344 10.0837 -19.1479 17.8982 34.2013 -4.6650 4.9854 17.0739 -46.2641 1.3867 -0.7997 -45.6201 -0.3052 0.7256 -22.8024 -0.0793 0.3935 -46.2802 1.3869 -0.7990 -45.6040 -0.3050 0.7254 -22.8024 -0.0793 0.3935 -46.2802 1.3869 -0.7990 -45.6040 -0.3050 0.7254 -22.8024 -0.0793 0.3935 -46.1870 1.3889 3.2839 -45.6395 2.6155 -2.1321 -22.8024 -0.0793 0.3935 5.0479 2.2783 14.0707 46.9478 -1.1140 47.0934 -0.0000 0.0000 109.9606 -5.7791 -4.2767 0.9958 15.0264 9.6560 -20.2081 0.1058 6.1827 -25.2895 -5.7888 0.9845 -11.3065 43.6679 0.9025 -0.0415 53.1168 -0.9135 -1.8275 26.5614 -0.2411 -1.0215 43.6679 0.9025 -0.0415 53.1168 -0.9135 -1.8275 26.5614 -0.2411 -1.0215 43.6679 0.9025 -0.0415 53.1168 -0.9135 -1.8275 26.5614 -0.2411 -1.0215 43.6679 0.9025 -0.0415 53.1168 -0.9135 -1.8275 26.5614 -0.2411 -1.0215 -26.0355 4.7829 33.6796 51.5445 5.2971 1.0159 -19.6907 18.2391 -22.1854 -0.5402 0.0000 0.0000 -44.3360 -2.3215 -10.7109 51.1868 8.7213 1.0902 -18.1712 20.8752 11.8639 -0.0054 0.0000 -0.0000 
-0.2266 84.6601 -1.0699 -65.5891 6.1287 -5.8673 0.7465 1.3717 7.7484 2.9064 4.3830 7.9186 3.0612 4.5433 7.7053 9.0937 6.9164 -2.2542 -0.0000 0.0000 -0.0000 -0.1345 30.2750 -22.9847 -3.9371 1.7292 -11.1079 -1.8092 -29.6902 26.3261 -0.0000 -0.0001 -88.3887 -0.7228 1.7182 -4.7629 -12.1358 12.7344 10.0837 -19.1479 17.8982 34.2013 -4.6650 4.9853 17.0739 -46.2641 1.3867 -0.7997 -45.6201 -0.3052 0.7256 -22.8024 -0.0793 0.3934 -46.2802 1.3869 -0.7990 -45.6040 -0.3050 0.7254 -22.8024 -0.0793 0.3934 -46.2802 1.3869 -0.7990 -45.6040 -0.3050 0.7254 -22.8024 -0.0793 0.3934 -46.1870 1.3889 3.2839 -45.6395 2.6155 -2.1320 -22.8024 -0.0793 0.3935 4.8530 2.1875 13.5397 48.6570 -2.2966 47.9218 -0.0000 0.0000 109.9270 -5.2784 -4.2222 0.1501 15.0264 9.6560 -20.2081 0.1058 6.1827 -25.2895 -5.7888 0.9845 -11.3065 43.6679 0.9025 -0.0415 53.1168 -0.9135 -1.8275 26.5614 -0.2411 -1.0215 43.6679 0.9025 -0.0415 53.1168 -0.9135 -1.8275 26.5614 -0.2411 -1.0215 43.6679 0.9025 -0.0415 53.1168 -0.9135 -1.8275 26.5614 -0.2411 -1.0215 43.6679 0.9025 -0.0415 53.1168 -0.9135 -1.8275 26.5614 -0.2411 -1.0215 -26.1286 4.2370 32.5144 48.3900 5.9191 0.7524 -18.1478 13.0822 -20.8439 -0.4242 0.0000 0.0000 -41.4390 -2.4649 -12.5963 49.9402 8.9989 0.9142 -18.8430 17.0002 12.0382 -0.0004 0.0000 -0.0000 
-0.5230 85.3549 -1.5503 -59.6033 5.6604 -5.4455 0.1897 2.0340 7.7574 2.5298 6.0568 7.5700 2.7902 6.2109 7.2864 8.7395 6.0810 -1.9673 -0.0000 0.0000 -0.0000 -0.5283 28.0522 -20.5896 -6.0205 1.8852 -10.4475 -3.5502 -33.5779 18.1661 0.0000 0.0000 -99.5875 -1.6420 2.0511 -7.3482 -12.1358 12.7344 10.0837 -19.1479 17.8982 34.2013 -4.6650 4.9854 17.0739 -46.2641 1.3867 -0.7997 -45.6200 -0.3052 0.7256 -22.8024 -0.0793 0.3935 -46.2802 1.3869 -0.7990 -45.6040 -0.3050 0.7254 -22.8024 -0.0793 0.3935 -46.2802 1.3869 -0.7990 -45.6040 -0.3050 0.7254 -22.8024 -0.0793 0.3935 -46.1870 1.3889 3.2839 -45.6395 2.6155 -2.1320 -22.8024 -0.0793 0.3934 3.4760 2.0061 13.8029 50.5851 -4.3182 48.9327 -0.0000 -0.0000 109.9190 -4.6142 -4.1745 -1.0805 15.0264 9.6560 -20.2081 0.1058 6.1828 -25.2895 -5.7888 0.9845 -11.3065 43.6678 0.9025 -0.0415 53.1168 -0.9135 -1.8275 26.5614 -0.2411 -1.0215 43.6678 0.9025 -0.0415 53.1168 -0.9135 -1.8275 26.5614 -0.2411 -1.0215 43.6678 0.9025 -0.0415 53.1168 -0.9135 -1.8275 26.5614 -0.2411 -1.0215 43.6678 0.9025 -0.0415 53.1168 -0.9135 -1.8275 26.5614 -0.2411 -1.0215 -27.4186 3.4429 32.4914 45.8926 5.8123 0.5947 -15.8876 8.5934 -19.9257 -0.2212 -0.0000 -0.0000 -38.1778 -3.2297 -13.4636 48.8831 9.1731 0.7037 -19.5629 11.8626 11.9939 -0.0011 0.0000 0.0000 
-0.7286 85.9457 -2.0309 -52.9787 5.3454 -5.8835 -0.1819 2.3085 7.7093 2.1966 6.7027 7.1187 2.5163 6.8394 6.8208 8.8140 5.2544 -1.6409 -0.0000 0.0000 -0.0000 -2.2505 26.0576 -17.8437 -6.8711 1.9931 -10.4327 -6.0002 -39.4895 10.0773 0.0000 -0.0000 -109.6243 -3.2684 2.7184 -11.4473 -12.1358 12.7344 10.0837 -19.1479 17.8982 34.2013 -4.6650 4.9853 17.0739 -46.2641 1.3867 -0.7997 -45.6201 -0.3052 0.7256 -22.8024 -0.0793 0.3935 -46.2802 1.3869 -0.7990 -45.6040 -0.3050 0.7254 -22.8024 -0.0793 0.3934 -46.2802 1.3869 -0.7990 -45.6040 -0.3050 0.7254 -22.8024 -0.0793 0.3934 -46.1870 1.3889 3.2839 -45.6395 2.6155 -2.1320 -22.8024 -0.0793 0.3935 3.1423 2.0020 14.2102 51.8359 -6.2385 48.8892 -0.0000 0.0000 111.2499 -4.1277 -4.2207 -1.9607 15.0264 9.6560 -20.2081 0.1058 6.1828 -25.2895 -5.7888 0.9845 -11.3065 43.6678 0.9025 -0.0415 53.1168 -0.9135 -1.8275 26.5614 -0.2411 -1.0215 43.6678 0.9025 -0.0415 53.1168 -0.9135 -1.8275 26.5614 -0.2411 -1.0215 43.6678 0.9025 -0.0415 53.1168 -0.9135 -1.8275 26.5614 -0.2411 -1.0215 43.6678 0.9025 -0.0415 53.1168 -0.9135 -1.8275 26.5614 -0.2411 -1.0215 -29.4147 2.0548 32.7925 43.6687 3.9017 0.5140 -12.9584 6.8134 -19.7281 -0.1125 -0.0000 -0.0000 -34.6296 -4.2780 -13.2232 47.5111 8.0572 0.5078 -20.1636 6.6829 12.3460 -0.0009 0.0000 -0.0000 
